<?xml version="1.0" encoding="UTF-8"?>
<svg width="1500px" height="1500px" viewBox="0 0 1500 1500" version="1.1" xmlns="http://www.w3.org/2000/svg" xmlns:xlink="http://www.w3.org/1999/xlink">
    <!-- Generator: Sketch 60 (88103) - https://sketch.com -->
    <title>Group</title>
    <desc>Created with Sketch.</desc>
    <g id="Page-1" stroke="none" stroke-width="1" fill="none" fill-rule="evenodd">
        <g id="Artboard" transform="translate(-269.000000, -76.000000)">
            <g id="Group" transform="translate(268.177986, 75.677986)">
                <rect id="Rectangle" fill="#FFC107" x="0.82201362" y="0.32201362" width="1500" height="1500" rx="115"></rect>
                <path d="M1217.4518,527.639748 L1208.23871,559.031595 C1204.94833,570.227288 1195.84492,578.898463 1184.43824,581.642505 L1137.93409,592.618675 L989.208553,627.742419 L915.613541,879.535762 C910.129561,898.305013 892.909863,910.488561 874.264331,910.488561 C870.315866,910.488561 866.25772,909.939753 862.199575,908.732374 L693.183311,859.229847 L693.183311,1090.27823 L480.295206,1090.27823 L480.295206,1164.03809 C480.295206,1201.13755 450.133316,1231.32201 413.061611,1231.32201 L288.904303,1231.32201 L288.904303,901.268579 L413.061611,901.268579 C450.133316,901.268579 480.295206,931.453046 480.295206,968.552501 L480.295206,1046.37355 L649.311471,1046.37355 L649.311471,846.49749 L325.866329,751.882903 C311.278942,747.602197 299.214186,737.833406 291.865653,724.442478 C284.517119,711.051551 282.871925,695.575151 287.14943,681.086606 L394.854797,312.397052 C399.132302,297.798746 408.893786,285.724959 422.274698,278.370925 C435.655609,271.016891 451.120432,269.370466 465.59814,273.651172 L1195.29652,487.247442 C1203.63217,489.6622 1210.54199,495.260046 1214.70981,502.943365 C1218.98732,510.407161 1219.97443,519.188097 1217.4518,527.639748 Z" id="Path" fill="#373737" fill-rule="nonzero"></path>
                <path d="M1156.82201,630.322014 L1097.8238,833.077788 C1094.1022,845.956412 1082.28067,854.322014 1069.58347,854.322014 C1066.847,854.322014 1064.11053,853.991792 1061.37407,853.111203 L972.822014,827.133807 L1020.65545,662.683684 L1156.82201,630.322014 Z" id="Path" fill="#373737" fill-rule="nonzero"></path>
            </g>
        </g>
    </g>
</svg>